{"title":"Euro.Angels.Harball.15.House.Of.Ass.DVDRip.SS.x264.Iou1","uid":9427240,"size":1457585189,"categoryP":"porn","categoryS":"movies","magnet":"?xt=urn:btih:fcd551534a0ad4b3f0ae42d0a5d712f36e1868c5&amp;dn=Euro.Angels.Harball.15.House.Of.Ass.DVDRip.SS.x264.Iou1&amp;tr=udp%3A%2F%2Ftracker.openbittorrent.com%3A80&amp;tr=udp%3A%2F%2Fopen.demonii.com%3A1337&amp;tr=udp%3A%2F%2Ftracker.coppersurfer.tk%3A6969&amp;tr=udp%3A%2F%2Fexodus.desync.com%3A6969","seeders":0,"leechers":3,"uploader":"jaybee211","files":-1,"time":1388732353,"description":"Genre                                    : XXX\nFormat                                   : MPEG-4\nFormat profile                           : Base Media / Version 2\nCodec ID                                 : mp42\nFile size                                : 1.35 GiB\nDuration                                 : 2h 19mn 38s\nOverall bit rate mode                    : Variable\nOverall bit rate                         : 1 330 Kbps\n\nVideo\nID                                       : 1\nFormat                                   : AVC\nFormat/Info                              : Advanced Video Codec\nFormat profile                           : &lt;a class=&quot;__cf_email__&quot; href=&quot;/cdn-cgi/l/email-protection&quot; data-cfemail=&quot;b9f1d0ded1f9f58a9788&quot;&gt;[email&amp;#160;protected]&lt;/a&gt;&lt;script cf-hash='f9e31' type=&quot;text/javascript&quot;&gt;\n/* &lt;![CDATA[ */!function(){try{var t=&quot;currentScript&quot;in document?document.currentScript:function(){for(var t=document.getElementsByTagName(&quot;script&quot;),e=t.length;e--;)if(t[e].getAttribute(&quot;cf-hash&quot;))return t[e]}();if(t&amp;&amp;t.previousSibling){var e,r,n,i,c=t.previousSibling,a=c.getAttribute(&quot;data-cfemail&quot;);if(a){for(e=&quot;&quot;,r=parseInt(a.substr(0,2),16),n=2;a.length-n;n+=2)i=parseInt(a.substr(n,2),16)^r,e+=String.fromCharCode(i);e=document.createTextNode(e),c.parentNode.replaceChild(e,c)}}}catch(u){}}();/* ]]&gt; */&lt;/script&gt;\nFormat settings, CABAC                   : Yes\nFormat settings, ReFrames                : 4 frames\nCodec ID                                 : avc1\nCodec ID/Info                            : Advanced Video Coding\nDuration                                 : 2h 19mn 38s\nBit rate mode                            : Variable\nBit rate                                 : 1 330 Kbps\nMaximum bit rate                         : 4 834 Kbps\nWidth                                    : 720 pixels\nHeight                                   : 540 pixels\nDisplay aspect ratio                     : 4:3\nFrame rate mode                          : Constant\nFrame rate                               : 29.970 fps\nStandard                                 : NTSC\nColor space                              : YUV\nChroma subsampling                       : 4:2:0\nBit depth                                : 8 bits\nScan type                                : Progressive\nBits/(Pixel*Frame)                       : 0.112\nStream size                              : 1.28 GiB (95%)\n\nAudio\nID                                       : 2\nFormat                                   : AAC\nFormat/Info                              : Advanced Audio Codec\nFormat profile                           : LC\nCodec ID                                 : 40\nDuration                                 : 2h 19mn 38s\nBit rate mode                            : Variable\nBit rate                                 : 62.0 Kbps\nMaximum bit rate                         : 73.3 Kbps\nChannel(s)                               : 2 channels\nChannel positions                        : Front: L R\nSampling rate                            : 48.0 KHz\nCompression mode                         : Lossy\nStream size                              : 70 MiB (5%)\nLanguage                                 : English\n\nScreens. &lt;a href=&quot; http://bayimg.com/cAFPPaAFM&quot; rel=&quot;nofollow&quot; target=&quot;_NEW&quot;&gt; http://bayimg.com/cAFPPaAFM&lt;/a&gt;\n\n         &lt;a href=&quot; http://bayimg.com/daFPdaafM&quot; rel=&quot;nofollow&quot; target=&quot;_NEW&quot;&gt; http://bayimg.com/daFPdaafM&lt;/a&gt;\n\n         &lt;a href=&quot; http://bayimg.com/daFPJAafM&quot; rel=&quot;nofollow&quot; target=&quot;_NEW&quot;&gt; http://bayimg.com/daFPJAafM&lt;/a&gt;\n\n         &lt;a href=&quot; http://bayimg.com/DaFPMAafM&quot; rel=&quot;nofollow&quot; target=&quot;_NEW&quot;&gt; http://bayimg.com/DaFPMAafM&lt;/a&gt;\n\n         &lt;a href=&quot; http://bayimg.com/DAFpoaafM&quot; rel=&quot;nofollow&quot; target=&quot;_NEW&quot;&gt; http://bayimg.com/DAFpoaafM&lt;/a&gt;\n\nCovers. &lt;a href=&quot; http://bayimg.com/cafplAaFm&quot; rel=&quot;nofollow&quot; target=&quot;_NEW&quot;&gt; http://bayimg.com/cafplAaFm&lt;/a&gt;\n\n        &lt;a href=&quot; http://bayimg.com/cafPMAafm&quot; rel=&quot;nofollow&quot; target=&quot;_NEW&quot;&gt; http://bayimg.com/cafPMAafm&lt;/a&gt;\n\nEnjoy.","torrent":{"xt":"urn:btih:fcd551534a0ad4b3f0ae42d0a5d712f36e1868c5","amp;dn":"Euro.Angels.Harball.15.House.Of.Ass.DVDRip.SS.x264.Iou1","amp;tr":["udp%3A%2F%2Ftracker.openbittorrent.com%3A80","udp%3A%2F%2Fopen.demonii.com%3A1337","udp%3A%2F%2Ftracker.coppersurfer.tk%3A6969","udp%3A%2F%2Fexodus.desync.com%3A6969"],"infoHash":"fcd551534a0ad4b3f0ae42d0a5d712f36e1868c5","infoHashBuffer":{"type":"Buffer","data":[252,213,81,83,74,10,212,179,240,174,66,208,165,215,18,243,110,24,104,197]},"announce":[],"urlList":[]}}